<svg id="Layer_1" data-name="Layer 1" xmlns="http://www.w3.org/2000/svg" viewBox="0 0 45 45"><defs><style>.cls-1{fill:#fff;}</style></defs><title>FB-logo</title><circle class="cls-1" cx="22.5" cy="22.5" r="21.5"/><path d="M22.67,45a22.5,22.5,0,1,1,22.5-22.5A22.52,22.52,0,0,1,22.67,45Zm0-43a20.5,20.5,0,1,0,20.5,20.5A20.52,20.52,0,0,0,22.67,2Z" transform="translate(-0.17)"/><path d="M24,22.75V23q0,5.52,0,11c0,.2,0,.26-.26.26h-4c-.2,0-.26-.06-.26-.26,0-3.65,0-7.3,0-10.95,0-.44,0-.37-.35-.37H15.7c-.27,0-.27,0-.27-.26,0-1.14,0-2.28,0-3.43,0-.2.06-.26.26-.25h3.51c.19,0,.24-.06.24-.24,0-.8,0-1.59,0-2.39a5.77,5.77,0,0,1,1.6-3.85,4.91,4.91,0,0,1,2.63-1.53A7,7,0,0,1,25,10.69c1.14,0,2.29,0,3.43,0,.18,0,.22.05.22.23,0,1.22,0,2.44,0,3.67,0,.27,0,.27-.29.27l-2.66,0c-.33,0-.66,0-1,.06a.52.52,0,0,0-.44.27,1.68,1.68,0,0,0-.26.89c0,.86,0,1.71,0,2.57,0,.16.09.16.2.16h4.16c.3,0,.3,0,.3.31v3.39c0,.2-.06.25-.24.24H24Z" transform="translate(-0.17)"/></svg>