<svg xmlns="http://www.w3.org/2000/svg" xmlns:xlink="http://www.w3.org/1999/xlink" viewBox="0 0 394.34 103.11"><defs><style>.cls-1{fill:url(#linear-gradient);}.cls-2{fill:url(#linear-gradient-2);}.cls-3{fill:#fff;}</style><linearGradient id="linear-gradient" x1="-5771.01" y1="103.11" x2="-5771.01" gradientTransform="translate(4357.35) scale(0.72 1)" gradientUnits="userSpaceOnUse"><stop offset="0" stop-color="#fadceb"/><stop offset="0.99" stop-color="#7c5a89"/></linearGradient><linearGradient id="linear-gradient-2" x1="-5764.97" y1="5.59" x2="-5764.97" y2="44.77" gradientTransform="translate(4357.35) scale(0.72 1)" gradientUnits="userSpaceOnUse"><stop offset="0" stop-color="#fadceb"/><stop offset="1" stop-color="#efcfe2" stop-opacity="0"/></linearGradient></defs><title>Asset 9</title><g id="Layer_2" data-name="Layer 2"><g id="Слой_1" data-name="Слой 1"><path class="cls-1" d="M394.34,68.61V34.1a34.15,34.15,0,0,0-34-34.1H41.67a34.14,34.14,0,0,0-34,34.1h0s.08,1.49.09,3.85V72.46C7.79,80.17,7,97.23,0,102.71c8,2.33,22.06-6.29,22.06-6.29a33.66,33.66,0,0,0,19.61,6.29H360.35a34.15,34.15,0,0,0,34-34.1h0"/><path class="cls-2" d="M37.68,5.14H363.53A18.47,18.47,0,0,1,382,23.61v2.24a18.47,18.47,0,0,1-18.47,18.47h-324A18.47,18.47,0,0,1,21.05,25.85V21.76A16.62,16.62,0,0,1,37.68,5.14Z"/><path class="cls-3" d="M128.56,41.84a14,14,0,0,1,10.32-4.16A13.79,13.79,0,0,1,149,41.84a13.51,13.51,0,0,1,0,19.43,13.72,13.72,0,0,1-10.16,4.16,14.32,14.32,0,0,1-7.6-2,13.78,13.78,0,0,1-6.8-11.84A13.38,13.38,0,0,1,128.56,41.84Zm17.68,17.23a10.49,10.49,0,0,0,2.88-7.48,10.46,10.46,0,0,0-2.88-7.47,10.48,10.48,0,0,0-14.84,0,11.09,11.09,0,0,0,0,14.91,10.63,10.63,0,0,0,14.84,0Z"/><path class="cls-3" d="M174.4,48.75v3.36H162V64.87h-3.79V38.24h16.35V41.6H162v7.15Z"/><path class="cls-3" d="M196.2,48.75v3.36H183.76V64.87H180V38.24h16.35V41.6H183.76v7.15Z"/><path class="cls-3" d="M218.12,64.87H201.77V38.24h3.79V61.51h12.56Z"/><path class="cls-3" d="M222.88,64.87V38.24h3.8V64.87Z"/><path class="cls-3" d="M235.48,46.12V64.87h-3.36V37.68l18.2,19.19V38.24h3.36V65.43Z"/><path class="cls-3" d="M275.48,48.79v3.36H262.92v9.36h12.56v3.36H259.12V38.24h16.36v3.32H262.92v7.23Z"/></g></g></svg>