<svg xmlns="http://www.w3.org/2000/svg" xmlns:xlink="http://www.w3.org/1999/xlink" viewBox="0 0 394.97 102.94"><defs><style>.cls-1{fill:url(#linear-gradient);}.cls-2{fill:url(#linear-gradient-2);}.cls-3{fill:#fff;}</style><linearGradient id="linear-gradient" x1="-4970.54" y1="102.94" x2="-4970.54" gradientTransform="matrix(-1, 0, 0, 1, -4773.05, 0)" gradientUnits="userSpaceOnUse"><stop offset="0" stop-color="#fcd7b6"/><stop offset="1" stop-color="#c3946d"/></linearGradient><linearGradient id="linear-gradient-2" x1="-4967.78" y1="5.4" x2="-4967.78" y2="44.52" gradientTransform="matrix(1, 0, 0, -1, 5162.51, 49.02)" gradientUnits="userSpaceOnUse"><stop offset="0" stop-color="#fcd9c8"/><stop offset="1" stop-color="#f0ccc0" stop-opacity="0"/></linearGradient></defs><title>Asset 8</title><g id="Layer_2" data-name="Layer 2"><g id="Слой_1" data-name="Слой 1"><path class="cls-1" d="M0,68.49V34.05A34.15,34.15,0,0,1,34.05,0H353.23a34.15,34.15,0,0,1,34,34.05h0s-.08,1.48-.09,3.84V72.34c0,7.7.74,24.74,7.78,30.2-8,2.34-22.1-6.28-22.1-6.28a33.81,33.81,0,0,1-19.64,6.28H34.05A34.15,34.15,0,0,1,0,68.49H0"/><rect class="cls-2" x="15.58" y="4.95" width="358.3" height="39.12" rx="19.56" ry="19.56" transform="translate(389.46 49.02) rotate(180)"/><path class="cls-3" d="M129.93,41.75a14,14,0,0,1,10.32-4.16,13.75,13.75,0,0,1,10.15,4.16,13.53,13.53,0,0,1,0,19.44,13.69,13.69,0,0,1-10.15,4.16,14.32,14.32,0,0,1-7.6-2,13.78,13.78,0,0,1-6.8-11.84A13.4,13.4,0,0,1,129.93,41.75ZM147.61,59a10.49,10.49,0,0,0,2.88-7.48A10.49,10.49,0,0,0,147.61,44a10.48,10.48,0,0,0-14.84,0,11.1,11.1,0,0,0,0,14.92,10.63,10.63,0,0,0,14.84,0Z"/><path class="cls-3" d="M162.89,46V64.79h-3.36V37.59l18.2,19.2V38.15h3.36v27.2Z"/><path class="cls-3" d="M202.89,64.79H186.53V38.15h3.8V61.43h12.56Z"/><path class="cls-3" d="M207.65,64.79V38.15h3.8V64.79Z"/><path class="cls-3" d="M220.25,46V64.79h-3.36V37.59l18.19,19.2V38.15h3.36v27.2Z"/><path class="cls-3" d="M260.24,48.71v3.36H247.69v9.36h12.55v3.36H243.89V38.15h16.35v3.32H247.69v7.24Z"/></g></g></svg>