<?xml version="1.0" encoding="utf-8"?>
<!-- Generator: Adobe Illustrator 22.1.0, SVG Export Plug-In . SVG Version: 6.00 Build 0)  -->
<svg version="1.1" id="Layer_1" xmlns="http://www.w3.org/2000/svg" xmlns:xlink="http://www.w3.org/1999/xlink" x="0px" y="0px"
	 viewBox="15 22.4 747 111.99" style="enable-background:new 0 0 776 162.9;" xml:space="preserve">
<style type="text/css">
	.st0{fill:url(#SVGID_1_);}
	.st1{fill:#FFFFFF;}
	.st2{fill:url(#SVGID_2_);}
</style>
<g>
	<path d="M98.6,22.5c0.8,2.6,1.3,5.5,1.3,8.6c0,6.8-2.1,12.4-6.2,16.9c-4.2,4.5-10.1,6.7-17.8,6.7H45.5V22.5H13.8v111.6h31.7V86.3
		h30.4c8.2,0,15.6-1.4,22.4-4.2c6.8-2.8,12.6-6.6,17.6-11.6c4.9-4.9,8.8-10.7,11.6-17.4c2.8-6.7,4.2-14.1,4.2-22.1
		c0-2.9-0.2-5.8-0.6-8.6H98.6z"/>
	<polygon points="278.8,22.5 238.9,92.7 198.8,22.5 141.5,22.5 141.5,134.1 173.2,134.1 173.2,41.9 225.7,134.1 251.8,134.1 
		304.3,41.9 304.3,134.1 336.1,134.1 336.1,22.5 	"/>
	<path d="M447.8,54.9c6-3,10.8-7.5,14.4-13.4c3.2-5.3,5-11.7,5.3-19h-31.7c0,0.1,0,0.1,0,0.2c0,4.8-1.5,8.8-4.5,11.8
		c-3,3-6.9,4.5-11.8,4.5h-35.1V22.5h-31.7v111.6h67.5c7.4,0,14-1.1,19.9-3.4c5.9-2.3,10.9-5.4,14.9-9.3c4.1-3.9,7.2-8.6,9.3-14.2
		c2.1-5.5,3.2-11.4,3.2-17.8c0-8.2-1.7-15.2-5.2-21.2C458.8,62.4,454,57.9,447.8,54.9z M431.5,98.2c-2.9,2.8-6.9,4.2-12,4.2h-35.1
		V70.7h35.1c4.8,0,8.8,1.5,11.8,4.4c3,2.9,4.5,6.9,4.5,11.9C435.8,91.7,434.4,95.4,431.5,98.2z"/>
	<polygon points="587.1,22.5 552.3,22.5 577.7,77.5 523.7,77.5 549.1,22.5 514.3,22.5 462.6,134.1 497.5,134.1 509,109.2 
		592.4,109.2 603.9,134.1 638.8,134.1 	"/>
	<g>
		<g>
			<linearGradient id="SVGID_1_" gradientUnits="userSpaceOnUse" x1="656.2022" y1="93.0312" x2="656.2022" y2="38.0373">
				<stop  offset="0" style="stop-color:#FAD5E5"/>
				<stop  offset="0.995" style="stop-color:#79608D"/>
			</linearGradient>
			<path class="st0" d="M761.7,74.6V56.2c0-10-8.2-18.2-18.2-18.2H573c-10,0-18.2,8.2-18.2,18.2v0c0,0,0,0.8,0,2.1v18.4
				c0,4.1-0.4,13.2-4.2,16.1c4.3,1.2,11.8-3.4,11.8-3.4c3,2.1,6.6,3.4,10.5,3.4h170.5C753.5,92.8,761.7,84.6,761.7,74.6L761.7,74.6"
				/>
		</g>
		<g>
			<path class="st1" d="M581.5,63.7c-0.1,0-0.2,0-0.2-0.2V52.8c0-0.1,0-0.2,0.2-0.2h3.9c1.1,0,1.9,0.3,2.6,0.9c0.6,0.6,1,1.4,1,2.4
				c0,1-0.3,1.8-1,2.4c-0.6,0.6-1.5,0.9-2.6,0.9h-2.6c-0.1,0-0.1,0-0.1,0.1v4.2c0,0.1,0,0.2-0.2,0.2H581.5z M585.4,57.9
				c1.4,0,2.2-0.7,2.2-2c0-1.2-0.8-2-2.2-2h-2.5c-0.1,0-0.1,0-0.1,0.1v3.7c0,0.1,0,0.1,0.1,0.1H585.4z"/>
			<path class="st1" d="M591.9,52.8c0-0.1,0-0.2,0.2-0.2h1.1c0.1,0,0.2,0,0.2,0.2v4.6c0,0.1,0,0.1,0.1,0.1h4.8c0.1,0,0.1,0,0.1-0.1
				v-4.6c0-0.1,0-0.2,0.2-0.2h1.1c0.1,0,0.2,0,0.2,0.2v10.8c0,0.1,0,0.2-0.2,0.2h-1.1c-0.1,0-0.2,0-0.2-0.2v-4.7
				c0-0.1,0-0.1-0.1-0.1h-4.8c-0.1,0-0.1,0-0.1,0.1v4.7c0,0.1,0,0.2-0.2,0.2H592c-0.1,0-0.2,0-0.2-0.2V52.8z"/>
			<path class="st1" d="M603.3,52.8c0-0.1,0-0.2,0.2-0.2h1.1c0.1,0,0.2,0,0.2,0.2v10.8c0,0.1,0,0.2-0.2,0.2h-1.1
				c-0.1,0-0.2,0-0.2-0.2V52.8z"/>
			<path class="st1" d="M608.3,52.8c0-0.1,0-0.2,0.2-0.2h1.1c0.1,0,0.2,0,0.2,0.2v9.5c0,0.1,0,0.1,0.1,0.1h5.3c0.1,0,0.2,0,0.2,0.2
				v1c0,0.1,0,0.2-0.2,0.2h-6.7c-0.1,0-0.2,0-0.2-0.2V52.8z"/>
			<path class="st1" d="M617.9,52.8c0-0.1,0-0.2,0.2-0.2h1.1c0.1,0,0.2,0,0.2,0.2v10.8c0,0.1,0,0.2-0.2,0.2h-1.1
				c-0.1,0-0.2,0-0.2-0.2V52.8z"/>
			<path class="st1" d="M623.1,63.7c-0.1,0-0.2,0-0.2-0.2V52.8c0-0.1,0-0.2,0.2-0.2h3.9c1.1,0,1.9,0.3,2.6,0.9c0.6,0.6,1,1.4,1,2.4
				c0,1-0.3,1.8-1,2.4c-0.6,0.6-1.5,0.9-2.6,0.9h-2.6c-0.1,0-0.1,0-0.1,0.1v4.2c0,0.1,0,0.2-0.2,0.2H623.1z M627,57.9
				c1.4,0,2.2-0.7,2.2-2c0-1.2-0.8-2-2.2-2h-2.5c-0.1,0-0.1,0-0.1,0.1v3.7c0,0.1,0,0.1,0.1,0.1H627z"/>
			<path class="st1" d="M638.1,52.8c0-0.1,0-0.2,0.2-0.2h1.1c0.1,0,0.2,0,0.3,0.2l3.3,7.5h0l3.2-7.5c0-0.1,0.1-0.2,0.3-0.2h1.1
				c0.1,0,0.2,0,0.2,0.2v10.8c0,0.1,0,0.2-0.2,0.2h-1c-0.1,0-0.2,0-0.2-0.2v-7.7h0l-2.8,6.1c0,0.1-0.1,0.2-0.3,0.2h-0.7
				c-0.1,0-0.3-0.1-0.3-0.2l-2.8-6.1h0v7.7c0,0.1,0,0.2-0.2,0.2h-1c-0.1,0-0.2,0-0.2-0.2V52.8z"/>
			<path class="st1" d="M651.2,61.3c-0.2-0.6-0.3-1.6-0.3-3.1c0-1.5,0.1-2.5,0.3-3.1c0.6-1.7,1.9-2.6,3.8-2.6c1.9,0,3.2,0.9,3.8,2.6
				c0.2,0.6,0.3,1.6,0.3,3.1c0,1.5-0.1,2.5-0.3,3.1c-0.6,1.7-1.8,2.6-3.8,2.6C653.1,63.9,651.7,63,651.2,61.3z M657.3,60.9
				c0.2-0.5,0.2-1.4,0.2-2.7c0-1.3-0.1-2.2-0.2-2.7c-0.4-1.1-1.1-1.6-2.4-1.6c-1.2,0-2,0.6-2.4,1.6c-0.2,0.5-0.2,1.4-0.2,2.7
				c0,1.3,0.1,2.2,0.2,2.7c0.4,1.1,1.1,1.6,2.4,1.6C656.2,62.6,657,62,657.3,60.9z"/>
			<path class="st1" d="M668.6,63.7c-0.1,0-0.2,0-0.2-0.2l-2.2-4.5h-2.4c-0.1,0-0.1,0-0.1,0.1v4.4c0,0.1,0,0.2-0.2,0.2h-1.1
				c-0.1,0-0.2,0-0.2-0.2V52.8c0-0.1,0-0.2,0.2-0.2h4c1,0,1.9,0.3,2.5,0.9c0.6,0.6,1,1.4,1,2.3c0,1.5-0.8,2.6-2.2,3l2.4,4.7
				c0.1,0.1,0,0.2-0.1,0.2H668.6z M666.3,57.7c1.3,0,2.1-0.7,2.1-1.8c0-1.2-0.8-1.8-2.1-1.8h-2.6c-0.1,0-0.1,0-0.1,0.1v3.5
				c0,0.1,0,0.1,0.1,0.1H666.3z"/>
			<path class="st1" d="M679.5,63.7c-0.1,0-0.2,0-0.2-0.2l-2.2-4.5h-2.4c-0.1,0-0.1,0-0.1,0.1v4.4c0,0.1,0,0.2-0.2,0.2h-1.1
				c-0.1,0-0.2,0-0.2-0.2V52.8c0-0.1,0-0.2,0.2-0.2h4c1,0,1.9,0.3,2.5,0.9c0.6,0.6,1,1.4,1,2.3c0,1.5-0.8,2.6-2.2,3l2.4,4.7
				c0.1,0.1,0,0.2-0.1,0.2H679.5z M677.2,57.7c1.3,0,2.1-0.7,2.1-1.8c0-1.2-0.8-1.8-2.1-1.8h-2.6c-0.1,0-0.1,0-0.1,0.1v3.5
				c0,0.1,0,0.1,0.1,0.1H677.2z"/>
			<path class="st1" d="M684,52.8c0-0.1,0-0.2,0.2-0.2h1.1c0.1,0,0.2,0,0.2,0.2v10.8c0,0.1,0,0.2-0.2,0.2h-1.1c-0.1,0-0.2,0-0.2-0.2
				V52.8z"/>
			<path class="st1" d="M688.5,62.5c-0.1-0.1-0.1-0.2,0-0.2l0.7-0.8c0.1-0.1,0.1-0.1,0.2,0c1,0.8,2,1.1,3.1,1.1
				c1.5,0,2.4-0.8,2.4-1.9c0-1-0.6-1.6-2.3-1.8l-0.6-0.1c-2.2-0.3-3.3-1.3-3.3-3.1c0-1,0.3-1.8,1-2.4c0.7-0.6,1.6-0.9,2.6-0.9
				c1.3,0,2.4,0.3,3.4,1c0.1,0.1,0.1,0.1,0,0.2l-0.6,0.9c-0.1,0.1-0.1,0.1-0.2,0c-0.9-0.6-1.8-0.8-2.7-0.8c-1.3,0-2.1,0.7-2.1,1.8
				c0,1,0.7,1.6,2.3,1.8l0.5,0.1c2.2,0.3,3.3,1.3,3.3,3.1c0,2-1.5,3.3-4,3.3C690.9,63.9,689.4,63.3,688.5,62.5z"/>
			<path class="st1" d="M581.4,69.8c0-0.1,0-0.2,0.2-0.2h3.9c2.2,0,3.3,1.1,3.3,2.9c0,1.2-0.5,2-1.5,2.4v0c0.9,0.2,1.7,1.2,1.7,2.6
				c0,2.1-1.3,3.2-3.6,3.2h-3.9c-0.1,0-0.2,0-0.2-0.2V69.8z M585.4,74.5c1.2,0,1.9-0.7,1.9-1.7c0-1.1-0.7-1.7-1.9-1.7h-2.5
				c-0.1,0-0.1,0-0.1,0.1v3.3c0,0.1,0,0.1,0.1,0.1H585.4z M582.8,79.4C582.8,79.4,582.9,79.5,582.8,79.4l2.7,0.1c1.3,0,2-0.7,2-1.8
				c0-1.1-0.7-1.8-2-1.8h-2.6c-0.1,0-0.1,0-0.1,0.1V79.4z"/>
			<path class="st1" d="M592,76.9v-7.1c0-0.1,0-0.2,0.2-0.2h1.1c0.1,0,0.2,0,0.2,0.2v7.1c0,1.8,1,2.7,2.5,2.7c1.5,0,2.5-0.9,2.5-2.7
				v-7.1c0-0.1,0-0.2,0.2-0.2h1.1c0.1,0,0.2,0,0.2,0.2v7.1c0,2.6-1.5,4-3.9,4C593.4,81,592,79.5,592,76.9z"/>
			<path class="st1" d="M602.9,79.6c-0.1-0.1-0.1-0.2,0-0.2l0.7-0.8c0.1-0.1,0.1-0.1,0.2,0c1,0.8,2,1.1,3.1,1.1
				c1.5,0,2.4-0.8,2.4-1.9c0-1-0.6-1.6-2.3-1.8l-0.6-0.1c-2.2-0.3-3.3-1.3-3.3-3.1c0-1,0.3-1.8,1-2.4c0.7-0.6,1.6-0.9,2.6-0.9
				c1.3,0,2.4,0.3,3.4,1c0.1,0.1,0.1,0.1,0,0.2l-0.6,0.9c-0.1,0.1-0.1,0.1-0.2,0c-0.9-0.6-1.8-0.8-2.7-0.8c-1.3,0-2.1,0.7-2.1,1.8
				c0,1,0.7,1.6,2.3,1.8l0.5,0.1c2.2,0.3,3.3,1.3,3.3,3.1c0,2-1.5,3.3-4,3.3C605.2,81,603.7,80.4,602.9,79.6z"/>
			<path class="st1" d="M613.7,69.8c0-0.1,0-0.2,0.2-0.2h1.1c0.1,0,0.2,0,0.2,0.2v10.8c0,0.1,0,0.2-0.2,0.2h-1.1
				c-0.1,0-0.2,0-0.2-0.2V69.8z"/>
			<path class="st1" d="M618.8,69.8c0-0.1,0-0.2,0.2-0.2h1c0.1,0,0.2,0,0.3,0.2l5,8.3h0.1v-8.3c0-0.1,0-0.2,0.2-0.2h1
				c0.1,0,0.2,0,0.2,0.2v10.8c0,0.1,0,0.2-0.2,0.2h-1c-0.1,0-0.2,0-0.3-0.2l-5-8.3h0v8.3c0,0.1,0,0.2-0.2,0.2h-1
				c-0.1,0-0.2,0-0.2-0.2V69.8z"/>
			<path class="st1" d="M630.2,69.8c0-0.1,0-0.2,0.2-0.2h6.7c0.1,0,0.2,0,0.2,0.2v1c0,0.1,0,0.2-0.2,0.2h-5.3c-0.1,0-0.1,0-0.1,0.1
				v3.3c0,0.1,0,0.1,0.1,0.1h4.5c0.1,0,0.2,0,0.2,0.2v1c0,0.1,0,0.2-0.2,0.2h-4.5c-0.1,0-0.1,0-0.1,0.1v3.4c0,0.1,0,0.1,0.1,0.1h5.3
				c0.1,0,0.2,0,0.2,0.2v1c0,0.1,0,0.2-0.2,0.2h-6.7c-0.1,0-0.2,0-0.2-0.2V69.8z"/>
			<path class="st1" d="M639.8,79.6c-0.1-0.1-0.1-0.2,0-0.2l0.7-0.8c0.1-0.1,0.1-0.1,0.2,0c1,0.8,2,1.1,3.1,1.1
				c1.5,0,2.4-0.8,2.4-1.9c0-1-0.6-1.6-2.3-1.8l-0.6-0.1c-2.2-0.3-3.3-1.3-3.3-3.1c0-1,0.3-1.8,1-2.4c0.7-0.6,1.6-0.9,2.6-0.9
				c1.3,0,2.4,0.3,3.4,1c0.1,0.1,0.1,0.1,0,0.2l-0.6,0.9c-0.1,0.1-0.1,0.1-0.2,0c-0.9-0.6-1.8-0.8-2.7-0.8c-1.3,0-2.1,0.7-2.1,1.8
				c0,1,0.7,1.6,2.3,1.8l0.5,0.1c2.2,0.3,3.3,1.3,3.3,3.1c0,2-1.5,3.3-4,3.3C642.2,81,640.7,80.4,639.8,79.6z"/>
			<path class="st1" d="M650.3,79.6c-0.1-0.1-0.1-0.2,0-0.2l0.7-0.8c0.1-0.1,0.1-0.1,0.2,0c1,0.8,2,1.1,3.1,1.1
				c1.5,0,2.4-0.8,2.4-1.9c0-1-0.6-1.6-2.3-1.8l-0.6-0.1c-2.2-0.3-3.3-1.3-3.3-3.1c0-1,0.3-1.8,1-2.4c0.7-0.6,1.6-0.9,2.6-0.9
				c1.3,0,2.4,0.3,3.4,1c0.1,0.1,0.1,0.1,0,0.2l-0.6,0.9c-0.1,0.1-0.1,0.1-0.2,0c-0.9-0.6-1.8-0.8-2.7-0.8c-1.3,0-2.1,0.7-2.1,1.8
				c0,1,0.7,1.6,2.3,1.8l0.5,0.1c2.2,0.3,3.3,1.3,3.3,3.1c0,2-1.5,3.3-4,3.3C652.7,81,651.1,80.4,650.3,79.6z"/>
			<path class="st1" d="M668.8,69.8c0-0.1,0.1-0.2,0.2-0.2h1.1c0.1,0,0.2,0,0.2,0.2l3.8,10.8c0,0.1,0,0.2-0.1,0.2h-1.1
				c-0.1,0-0.2,0-0.2-0.2l-0.8-2.4h-4.5l-0.8,2.4c0,0.1-0.1,0.2-0.2,0.2h-1.1c-0.1,0-0.1,0-0.1-0.2L668.8,69.8z M667.8,76.9h3.5
				l-1.7-5h0L667.8,76.9z"/>
			<path class="st1" d="M675.9,75.2c0-1.5,0.1-2.5,0.3-3.1c0.6-1.7,1.8-2.6,3.7-2.6c1.6,0,2.9,0.8,3.6,2.2c0,0.1,0,0.2-0.1,0.2
				l-1,0.5c-0.1,0-0.2,0-0.2-0.1c-0.5-1-1.3-1.5-2.3-1.5c-1.2,0-1.9,0.5-2.3,1.6c-0.1,0.4-0.2,1.4-0.2,2.7c0,1.4,0.1,2.3,0.2,2.7
				c0.4,1.1,1.1,1.6,2.3,1.6c1,0,1.8-0.5,2.3-1.5c0-0.1,0.1-0.1,0.2-0.1l1,0.5c0.1,0,0.1,0.1,0.1,0.2c-0.6,1.4-1.9,2.2-3.6,2.2
				c-1.9,0-3.1-0.9-3.7-2.6C676,77.8,675.9,76.7,675.9,75.2z"/>
			<path class="st1" d="M689.3,69.8c0-0.1,0.1-0.2,0.2-0.2h1.1c0.1,0,0.2,0,0.2,0.2l3.8,10.8c0,0.1,0,0.2-0.1,0.2h-1.1
				c-0.1,0-0.2,0-0.2-0.2l-0.8-2.4h-4.5l-0.8,2.4c0,0.1-0.1,0.2-0.2,0.2h-1.1c-0.1,0-0.1,0-0.1-0.2L689.3,69.8z M688.2,76.9h3.5
				l-1.7-5h0L688.2,76.9z"/>
			<path class="st1" d="M697.1,69.8c0-0.1,0-0.2,0.2-0.2h3.7c1.9,0,3.1,0.8,3.6,2.4c0.2,0.6,0.3,1.7,0.3,3.2c0,1.5-0.1,2.6-0.3,3.2
				c-0.5,1.6-1.7,2.4-3.6,2.4h-3.7c-0.1,0-0.2,0-0.2-0.2V69.8z M698.5,79.3C698.5,79.4,698.5,79.4,698.5,79.3l2.1,0.1
				c1.4,0,2.2-0.5,2.5-1.5c0.1-0.4,0.2-1.3,0.2-2.7c0-1.4-0.1-2.3-0.2-2.7c-0.3-1-1.2-1.5-2.5-1.5h-2c-0.1,0-0.1,0-0.1,0.1V79.3z"/>
			<path class="st1" d="M708,69.8c0-0.1,0-0.2,0.2-0.2h6.7c0.1,0,0.2,0,0.2,0.2v1c0,0.1,0,0.2-0.2,0.2h-5.3c-0.1,0-0.1,0-0.1,0.1
				v3.3c0,0.1,0,0.1,0.1,0.1h4.5c0.1,0,0.2,0,0.2,0.2v1c0,0.1,0,0.2-0.2,0.2h-4.5c-0.1,0-0.1,0-0.1,0.1v3.4c0,0.1,0,0.1,0.1,0.1h5.3
				c0.1,0,0.2,0,0.2,0.2v1c0,0.1,0,0.2-0.2,0.2h-6.7c-0.1,0-0.2,0-0.2-0.2V69.8z"/>
			<path class="st1" d="M718,69.8c0-0.1,0-0.2,0.2-0.2h1.1c0.1,0,0.2,0,0.3,0.2l3.3,7.5h0l3.2-7.5c0-0.1,0.1-0.2,0.3-0.2h1.1
				c0.1,0,0.2,0,0.2,0.2v10.8c0,0.1,0,0.2-0.2,0.2h-1c-0.1,0-0.2,0-0.2-0.2v-7.7h0l-2.8,6.1c0,0.1-0.1,0.2-0.3,0.2h-0.7
				c-0.1,0-0.3-0.1-0.3-0.2l-2.8-6.1h0v7.7c0,0.1,0,0.2-0.2,0.2h-1c-0.1,0-0.2,0-0.2-0.2V69.8z"/>
			<path class="st1" d="M733.6,80.8c-0.1,0-0.2,0-0.2-0.2v-4.4l-3.3-6.4c0-0.1,0-0.2,0.1-0.2h1.2c0.1,0,0.2,0,0.2,0.2l2.5,4.7h0
				l2.5-4.7c0-0.1,0.1-0.2,0.2-0.2h1.1c0.1,0,0.2,0.1,0.1,0.2l-3.3,6.4v4.4c0,0.1,0,0.2-0.2,0.2H733.6z"/>
		</g>
		<linearGradient id="SVGID_2_" gradientUnits="userSpaceOnUse" x1="658.1824" y1="40.477" x2="658.1824" y2="58.9327">
			<stop  offset="0" style="stop-color:#FAD5E5"/>
			<stop  offset="1" style="stop-color:#EAC6D9;stop-opacity:0"/>
		</linearGradient>
		<path class="st2" d="M745.5,58.7H570.9c-3.9,0-7.1-3.2-7.1-7.1v-4.2c0-3.9,3.2-7.1,7.1-7.1h174.6c3.9,0,7.1,3.2,7.1,7.1v4.2
			C752.6,55.5,749.4,58.7,745.5,58.7z"/>
	</g>
</g>
</svg>
